<svg id="Layer_1" data-name="Layer 1" xmlns="http://www.w3.org/2000/svg" width="340px" height="333px" viewBox="0 0 833.67 363.01"><defs><style>.cls-1{fill:none;stroke:#000;stroke-miterlimit:10;stroke-width:5px;}</style></defs><title>name.s</title>
<path class="cls-1" d="M222,213c-1.34-4.81-7.79-25.95-28-36-15.07-7.5-29.67-4.8-34-4-39.46,7.29-70.12,57.6-75,104-1.45,13.81-5.73,54.55,23,87,1.47,1.65,30.86,33.9,71,33,63.55-1.43,108.22-84.9,124-136,32-103.62-11.25-215.1-30-214-19.93,1.17-26,130.36-27,174-2.23,102.22,14.21,177.23,23,177,8.15-.21,3.35-64.93,48-127,9.65-13.41,23.77-32.61,37-30,16.88,3.32,25.08,40.7,37,95,8.22,37.45,10.46,60.39,18,61,5.08.41,10-9.53,17-27,15.73-39.09,23.6-58.64,29-90,12.78-74.17,3.71-133.3,0-154-2.54-14.15-15.29-85.29-31-85-13,.24-21.8,48.89-26,72a388.54,388.54,0,0,0-3,121c3.61,26.75,7.89,56.57,25,91,16.3,32.79,44.14,69.58,55,65,4.36-1.84,4.13-9.56,4-38-.34-73.53.91-81.57,4-90,13-35.54,49.12-52,50-51s-44.09,24.27-53,66c-10.81,50.6,33.13,121.37,81,122,22.45.29,38.66-14.92,43-19,40.89-38.38,34.09-120.43-6-154-3.57-3-24.51-20.52-50-16-17.46,3.1-37.57,16.64-37,31,.58,14.66,22.47,24.26,31,28,63.83,28,132.54-12.31,149-23,22-14.3,29.69-26.36,31-38,.23-2.06,1.57-14-6-22-9.36-9.95-26.87-8.15-37-4-28.19,11.56-32.41,54.95-33,61-3.23,33.2,8.38,85.52,53,106,4.34,2,45.88,20.19,84-5,16.72-11,23.59-30.05,30.09-45.62C817,289,819.5,277.84,824.5,255.5c9.87-44.09,7.83-51,6.5-54.5-4.69-12.38-11.28-10.09-27-32-9.77-13.62-16-22.32-19-35-.46-1.93-9.28-41.83,13-54,12.87-7,32.69-2.32,41,9,9.64,13.14,1,31.43,7,34,7.21,3.1,17.85-24.36,37-25,12-.4,24,9.9,28,21,7.46,20.77-13.9,41.95-19,47-6.81,6.75-15.54,11.5-33,21-11.5,6.26-21.27,10.92-28,14" transform="translate(-81.4 -38.5)"/></svg>