<svg id="Layer_1" data-name="Layer 1" xmlns="http://www.w3.org/2000/svg" viewBox="0 0 325 400"><defs><style>.cls-1{fill:#cbcbca;}.cls-2{fill:#e0cd8b;}.cls-3{fill:#bf3133;}.cls-4{fill:#c4a26e;}.cls-5{font-size:28px;fill:#231f20;stroke:#231f20;stroke-miterlimit:10;stroke-width:0.25px;font-family:AmericanTypewriter, American Typewriter;}</style></defs><title>pizza</title><rect class="cls-1" width="325" height="400"/><polygon class="cls-2" points="222.04 154.46 221.94 154.71 221.94 154.72 194.12 225.96 182.41 255.95 172.91 280.3 162.78 306.23 161.07 310.58 141.78 261.17 131.06 233.71 115.02 192.63 104.19 164.93 100.25 154.82 100.11 154.46 222.04 154.46"/><ellipse class="cls-3" cx="158.3" cy="200.7" rx="15.58" ry="16.54"/><path class="cls-3" d="M131.27,176.12c0,9.14-7,16.54-15.58,16.54a5.09,5.09,0,0,1-.67,0l-10.82-27.7a15.2,15.2,0,0,1,11.49-5.35C124.3,159.58,131.27,167,131.27,176.12Z" transform="translate(0 0)"/><path class="cls-1" d="M141.78,261.17c-8.16-.52-14.62-7.71-14.62-16.5a17.15,17.15,0,0,1,3.9-11Z" transform="translate(0 0)"/><path class="cls-3" d="M158.31,244.67c0,9.14-7,16.54-15.58,16.54-.32,0-.64,0-.95,0l-10.72-27.46a15.18,15.18,0,0,1,11.67-5.58C151.33,228.13,158.31,235.53,158.31,244.67Z" transform="translate(0 0)"/><ellipse class="cls-3" cx="194.45" cy="176.12" rx="15.58" ry="16.54"/><path class="cls-1" d="M206.62,242.18c0,9.14-7,16.54-15.58,16.54a14.82,14.82,0,0,1-8.63-2.77l11.71-30C201.25,227.49,206.62,234.18,206.62,242.18Z" transform="translate(0 0)"/><path class="cls-3" d="M194.12,226l-11.71,30a16.77,16.77,0,0,1-6.95-13.77c0-9.12,7-16.54,15.58-16.54A14.9,14.9,0,0,1,194.12,226Z" transform="translate(0 0)"/><path class="cls-1" d="M191,296.61c0,9.14-7,16.54-15.58,16.54a15.27,15.27,0,0,1-12.68-6.92l10.13-25.93a13.44,13.44,0,0,1,2.55-.23C184.06,280.07,191,287.49,191,296.61Z" transform="translate(0 0)"/><path class="cls-3" d="M172.91,280.3l-10.13,25.93a17.2,17.2,0,0,1-2.91-9.62C159.87,288.41,165.52,281.59,172.91,280.3Z" transform="translate(0 0)"/><path class="cls-1" d="M115,192.63c-8.29-.36-14.91-7.61-14.91-16.51a17.11,17.11,0,0,1,4.09-11.19Z" transform="translate(0 0)"/><path class="cls-4" d="M103.27,155.1H218.42c7.59,0,13.8-5.12,13.8-11.39s-6.21-11.39-13.8-11.39H103.27c-7.59,0-13.8,5.12-13.8,11.39S95.68,155.1,103.27,155.1Z" transform="translate(0 0)"/><text class="cls-5" transform="translate(127.11 123.38)">FOOD</text></svg>