<svg id="Layer_1" data-name="Layer 1" xmlns="http://www.w3.org/2000/svg" viewBox="0 0 176.22 208.15"><defs><style>.cls-1{font-size:28px;fill:#231f20;stroke:#231f20;stroke-width:0.25px;font-family:AmericanTypewriter, American Typewriter;}.cls-1,.cls-4,.cls-6{stroke-miterlimit:10;}.cls-2{fill:#c8b299;}.cls-3{fill:#010101;}.cls-4{fill:#f7c0d9;}.cls-4,.cls-6{stroke:#010101;}.cls-5{fill:#cbcbca;}.cls-6{fill:#fff;}.cls-7{fill:#f3f3f3;}.cls-8{fill:#2aaae2;}.cls-9{fill:#ef549e;}.cls-10{fill:#5dba47;}</style></defs><title>pizza</title><text class="cls-1" transform="translate(50.87 23.52)">FOOD</text><path class="cls-2" d="M164.53,309.35a87.72,87.72,0,0,1-24-3.37c-46.64-13.27-74.39-62.1-61.85-108.86A86.49,86.49,0,0,1,162,133a87.72,87.72,0,0,1,24,3.37c46.64,13.26,74.39,62.1,61.85,108.86A86.48,86.48,0,0,1,164.53,309.35Z" transform="translate(-75.16 -101.7)"/><path class="cls-3" d="M162,132.53v1a87.21,87.21,0,0,1,23.86,3.35c46.38,13.19,74,61.75,61.5,108.25a85.24,85.24,0,0,1-31.07,46.33,86.27,86.27,0,0,1-51.77,17.4,87.21,87.21,0,0,1-23.86-3.35c-46.38-13.19-74-61.75-61.5-108.25a85.24,85.24,0,0,1,31.07-46.33A86.27,86.27,0,0,1,162,133.53v-1m0,0A86.7,86.7,0,0,0,78.2,197c-12.63,47.1,15.21,96.11,62.2,109.47a88.11,88.11,0,0,0,24.13,3.39,86.7,86.7,0,0,0,83.81-64.47c12.63-47.1-15.21-96.11-62.2-109.47A88.1,88.1,0,0,0,162,132.53Z" transform="translate(-75.16 -101.7)"/><path class="cls-4" d="M111,164.51c1-2.72,2.66-7.6,7-11.3,3.15-2.7,7.5-4.68,16.24-5.15a71.16,71.16,0,0,1,12.28.71c6,.67,8.44,2,14.65,2.19,4.84.14,6.89-.44,7.49-.63,2.91-.88,3.7-2.07,7.93-3.79a39.66,39.66,0,0,1,6.29-2.19c2.58-.6,7-1.62,11.75.08,7,2.52,10.51,9.51,11.46,11.43.77,1.55.91,2.27,2.23,4.85a56.94,56.94,0,0,0,4.77,7.75c2.89,3.85,5,4.6,10.47,9,8.62,6.9,10.4,9.11,11.66,11.83.85,1.83,2.09,4.5,1.57,7.71-.86,5.19-5.3,5.46-6.14,9.28-1.47,6.64,10.89,10.45,12.41,21.56a19.39,19.39,0,0,1-2.1,10.93c-4.36,9.52-12.13,9.06-18.34,16.08-10.55,11.91-.08,26.58-9.15,34-6.77,5.51-13.49-1.91-31.2,1.4-17.13,3.2-18.27,11.47-27.62,9.94-15-2.46-15.59-23.69-33.43-27.79-9-2.07-12.55,2.68-20.65-1.36-7.09-3.53-13.38-11.58-13.23-19.54.05-2.78,1.61-6.6,4.73-14.22,3-7.27,4.53-9.26,4-12.87s-2.48-4.09-5.61-9.36c-2.65-4.46-6-10-5.15-16.24,1.13-8.72,9.78-14,10.64-14.51,5.66-3.36,8.37-1.43,11.38-4.78C110.53,175.81,108.16,172.65,111,164.51Z" transform="translate(-75.16 -101.7)"/><path class="cls-5" d="M163.26,245.79A24.6,24.6,0,1,1,186,230.48,24.45,24.45,0,0,1,163.26,245.79Z" transform="translate(-75.16 -101.7)"/><path class="cls-3" d="M163.28,197.09h0a24.1,24.1,0,1,1-22.31,15,23.95,23.95,0,0,1,22.31-15m0-1a25.1,25.1,0,1,0,9.47,1.87,25.1,25.1,0,0,0-9.47-1.87Z" transform="translate(-75.16 -101.7)"/><path class="cls-6" d="M237.34,286" transform="translate(-75.16 -101.7)"/><path class="cls-6" d="M204.82,134" transform="translate(-75.16 -101.7)"/><path class="cls-6" d="M217.54,137.76" transform="translate(-75.16 -101.7)"/><path class="cls-6" d="M224.57,134.23" transform="translate(-75.16 -101.7)"/><path class="cls-6" d="M219.12,170.93" transform="translate(-75.16 -101.7)"/><rect class="cls-7" x="203.32" y="200.97" width="10.91" height="2.18" rx="1.09" ry="1.09" transform="translate(-132.36 217.28) rotate(-67.79)"/><rect class="cls-7" x="113.22" y="225.46" width="10.91" height="2.18" rx="1.09" ry="1.09" transform="matrix(0.95, -0.31, 0.31, 0.95, -140.26, -53.02)"/><rect class="cls-7" x="217.16" y="231.11" width="2.18" height="10.91" rx="1.09" ry="1.09" transform="translate(-168.28 216.36) rotate(-61.97)"/><rect class="cls-7" x="140.34" y="170.55" width="10.91" height="2.18" rx="1.09" ry="1.09" transform="translate(-102.48 213.97) rotate(-89.41)"/><rect class="cls-7" x="178.59" y="261.57" width="10.91" height="2.18" rx="1.09" ry="1.09" transform="translate(-203.86 232.08) rotate(-67.79)"/><rect class="cls-7" x="139.63" y="253.67" width="2.18" height="10.91" rx="1.09" ry="1.09" transform="translate(-209.34 50.76) rotate(-40.29)"/><rect class="cls-8" x="163.17" y="264.71" width="10.91" height="2.18" rx="1.09" ry="1.09" transform="translate(-202.67 57.37) rotate(-37.79)"/><rect class="cls-8" x="97.47" y="201.1" width="2.18" height="10.91" rx="1.09" ry="1.09" transform="translate(-128.48 -66.35) rotate(-16.07)"/><rect class="cls-8" x="113.87" y="246.94" width="10.91" height="2.18" rx="1.09" ry="1.09" transform="translate(-230.57 163.07) rotate(-67.79)"/><rect class="cls-8" x="213.13" y="188.48" width="10.91" height="2.18" rx="1.09" ry="1.09" transform="translate(-92.83 254.89) rotate(-76.19)"/><rect class="cls-8" x="194.37" y="263.3" width="10.91" height="2.18" rx="1.09" ry="1.09" transform="translate(-206.07 141.48) rotate(-49.25)"/><rect class="cls-8" x="189.39" y="223.56" width="10.91" height="2.18" rx="1.09" ry="1.09" transform="translate(-146.97 -8.7) rotate(-22.79)"/><rect class="cls-9" x="189.51" y="189.18" width="2.18" height="10.91" rx="1.09" ry="1.09" transform="translate(-136.79 195.85) rotate(-67.8)"/><rect class="cls-9" x="112.44" y="163.87" width="10.91" height="2.18" rx="1.09" ry="1.09" transform="translate(-123.42 179.46) rotate(-89.41)"/><rect class="cls-9" x="100.27" y="222.53" width="10.91" height="2.18" rx="1.09" ry="1.09" transform="translate(-216.43 135.29) rotate(-67.79)"/><rect class="cls-9" x="129.7" y="226.04" width="2.18" height="10.91" rx="1.09" ry="1.09" transform="translate(-95.44 -89.01) rotate(-5.16)"/><rect class="cls-9" x="206.73" y="273.99" width="2.18" height="10.91" rx="1.09" ry="1.09" transform="translate(-209.43 112.53) rotate(-42.57)"/><rect class="cls-9" x="150.89" y="283.26" width="10.91" height="2.18" rx="1.09" ry="1.09" transform="translate(-198.15 17.51) rotate(-30.61)"/><rect class="cls-9" x="222.65" y="200.35" width="2.18" height="10.91" rx="1.09" ry="1.09" transform="translate(-137.44 1.09) rotate(-22.8)"/><rect class="cls-9" x="195.36" y="237.78" width="10.91" height="2.18" rx="1.09" ry="1.09" transform="translate(-171.4 232.82) rotate(-67.79)"/><rect class="cls-7" x="128.3" y="194.84" width="2.18" height="10.91" rx="1.09" ry="1.09" transform="translate(-159.14 -7.87) rotate(-30.62)"/><rect class="cls-9" x="162.06" y="175.62" width="2.18" height="10.91" rx="1.09" ry="1.09" transform="translate(-137.69 171.43) rotate(-70.17)"/><rect class="cls-8" x="229.36" y="224.31" width="2.18" height="10.91" rx="1.09" ry="1.09" transform="translate(-135.65 -17.72) rotate(-18.3)"/><rect class="cls-8" x="140.42" y="274.27" width="10.91" height="2.18" rx="1.09" ry="1.09" transform="translate(-213.3 45.43) rotate(-37.79)"/><rect class="cls-8" x="152.54" y="163.74" width="10.91" height="2.18" rx="1.09" ry="1.09" transform="translate(-129.48 147.11) rotate(-67.79)"/><rect class="cls-7" x="120.67" y="259.14" width="10.91" height="2.18" rx="1.09" ry="1.09" transform="translate(-237.63 176.95) rotate(-67.79)"/><rect class="cls-7" x="98.33" y="250.95" width="2.18" height="10.91" rx="1.09" ry="1.09" transform="translate(-211.46 13.05) rotate(-37.8)"/><rect class="cls-10" x="208.55" y="246.45" width="2.18" height="10.91" rx="1.09" ry="1.09" transform="translate(-185.57 79.66) rotate(-37.8)"/><rect class="cls-10" x="127.89" y="212.6" width="10.91" height="2.18" rx="1.09" ry="1.09" transform="translate(-190.05 154.68) rotate(-67.79)"/><rect class="cls-10" x="128.47" y="245.83" width="10.91" height="2.18" rx="1.09" ry="1.09" transform="translate(-218.23 98.51) rotate(-51.96)"/><rect class="cls-10" x="130.7" y="159.54" width="10.91" height="2.18" rx="1.09" ry="1.09" transform="translate(-144.78 103.61) rotate(-61.97)"/><rect class="cls-10" x="172.68" y="276.59" width="2.18" height="10.91" rx="1.09" ry="1.09" transform="translate(-200.13 37.17) rotate(-32.76)"/><rect class="cls-10" x="155.05" y="250.53" width="2.18" height="10.91" rx="1.09" ry="1.09" transform="translate(-207.18 71.39) rotate(-42.57)"/><rect class="cls-10" x="214.03" y="215.69" width="2.18" height="10.91" rx="1.09" ry="1.09" transform="translate(-103.19 -70.46) rotate(-7.8)"/><rect class="cls-10" x="187.37" y="148.25" width="2.18" height="10.91" rx="1.09" ry="1.09" transform="translate(-95.21 177.15) rotate(-70.17)"/><rect class="cls-10" x="188.28" y="208.97" width="10.91" height="2.18" rx="1.09" ry="1.09" transform="translate(-114.96 273.04) rotate(-82.51)"/><rect class="cls-10" x="101.76" y="241.99" width="10.91" height="2.18" rx="1.09" ry="1.09" transform="translate(-160.95 -41.2) rotate(-22.79)"/><rect class="cls-7" x="178.3" y="244.96" width="10.91" height="2.18" rx="1.09" ry="1.09" transform="translate(-124.75 -55.29) rotate(-12.7)"/><rect class="cls-8" x="185.76" y="278.64" width="10.91" height="2.18" rx="1.09" ry="1.09" transform="translate(-176.66 7.34) rotate(-25.4)"/><rect class="cls-10" x="198.17" y="184.72" width="10.91" height="2.18" rx="1.09" ry="1.09" transform="translate(-120.53 202.41) rotate(-67.79)"/><rect class="cls-10" x="118.65" y="183.83" width="2.18" height="10.91" rx="1.09" ry="1.09" transform="matrix(1, -0.04, 0.04, 1, -82.68, -96.73)"/><rect class="cls-8" x="181.19" y="180.15" width="10.91" height="2.18" rx="1.09" ry="1.09" transform="translate(-118.01 -43.01) rotate(-16.06)"/><rect class="cls-8" x="111.73" y="206" width="10.91" height="2.18" rx="1.09" ry="1.09" transform="translate(-110.57 -77.19) rotate(-10.39)"/><rect class="cls-7" x="100.89" y="192.15" width="10.91" height="2.18" rx="1.09" ry="1.09" transform="translate(-187.91 116.97) rotate(-67.79)"/><rect class="cls-7" x="191.82" y="165.64" width="10.91" height="2.18" rx="1.09" ry="1.09" transform="translate(-117.51 -31.38) rotate(-18.29)"/><rect class="cls-7" x="168.86" y="187.83" width="2.18" height="10.91" rx="1.09" ry="1.09" transform="translate(-119.01 234.85) rotate(-82.5)"/><rect class="cls-9" x="144.17" y="184.82" width="2.18" height="10.91" rx="1.09" ry="1.09" transform="translate(-99.64 -80.23) rotate(-7.8)"/><rect class="cls-9" x="178.38" y="158.72" width="2.18" height="10.91" rx="1.09" ry="1.09" transform="translate(-124.76 -19.32) rotate(-22.8)"/><rect class="cls-8" x="131.68" y="175.01" width="2.18" height="10.91" rx="1.09" ry="1.09" transform="translate(-164.07 111.16) rotate(-61.97)"/><rect class="cls-10" x="170.22" y="167.17" width="2.18" height="10.91" rx="1.09" ry="1.09" transform="translate(-146.15 50.03) rotate(-40.29)"/></svg>